<svg xmlns="http://www.w3.org/2000/svg" width="1200" height="330" viewBox="0 0 1200 330"><defs><linearGradient id="bg" x1="0" y1="0" x2="1" y2="1"><stop stop-color="#0d1117"/><stop offset="1" stop-color="#111827"/></linearGradient></defs><rect width="1200" height="330" rx="22" fill="url(#bg)" stroke="#30363d"/><text x="45" y="55" fill="#58a6ff" font-family="Arial,sans-serif" font-size="30" font-weight="700">Quiroz · GitHub Metrics</text><text x="45" y="84" fill="#8b949e" font-family="Arial,sans-serif" font-size="15">últimos 12 meses · atualizado automaticamente no próprio repositório</text><rect x="45" y="112" width="345" height="72" rx="14" fill="#161b22" stroke="#30363d"/><text x="63" y="140" fill="#8b949e" font-family="Arial,sans-serif" font-size="15">Contribuições</text><text x="63" y="169" fill="#39d353" font-family="Arial,sans-serif" font-size="26" font-weight="700">12</text><rect x="420" y="112" width="345" height="72" rx="14" fill="#161b22" stroke="#30363d"/><text x="438" y="140" fill="#8b949e" font-family="Arial,sans-serif" font-size="15">Commits visíveis</text><text x="438" y="169" fill="#58a6ff" font-family="Arial,sans-serif" font-size="26" font-weight="700">10</text><rect x="795" y="112" width="345" height="72" rx="14" fill="#161b22" stroke="#30363d"/><text x="813" y="140" fill="#8b949e" font-family="Arial,sans-serif" font-size="15">Atividade privada</text><text x="813" y="169" fill="#a371f7" font-family="Arial,sans-serif" font-size="26" font-weight="700">0</text><rect x="45" y="204" width="345" height="72" rx="14" fill="#161b22" stroke="#30363d"/><text x="63" y="232" fill="#8b949e" font-family="Arial,sans-serif" font-size="15">Pull Requests</text><text x="63" y="261" fill="#f0883e" font-family="Arial,sans-serif" font-size="26" font-weight="700">0</text><rect x="420" y="204" width="345" height="72" rx="14" fill="#161b22" stroke="#30363d"/><text x="438" y="232" fill="#8b949e" font-family="Arial,sans-serif" font-size="15">Issues</text><text x="438" y="261" fill="#d2a8ff" font-family="Arial,sans-serif" font-size="26" font-weight="700">0</text><rect x="795" y="204" width="345" height="72" rx="14" fill="#161b22" stroke="#30363d"/><text x="813" y="232" fill="#8b949e" font-family="Arial,sans-serif" font-size="15">Reviews</text><text x="813" y="261" fill="#56d364" font-family="Arial,sans-serif" font-size="26" font-weight="700">0</text><text x="45" y="310" fill="#8b949e" font-family="Arial,sans-serif" font-size="13">Contribuições privadas seguem a visibilidade pública configurada no GitHub; detalhes privados permanecem ocultos.</text></svg>