<svg xmlns="http://www.w3.org/2000/svg" width="1200" height="110" viewBox="0 0 1200 110"><defs>
    <linearGradient id="fire" x1="0" y1="0" x2="1" y2="0"><stop stop-color="#8F3214"/><stop offset=".45" stop-color="#C0531B"/><stop offset="1" stop-color="#E77A24"/></linearGradient>
    <linearGradient id="water" x1="0" y1="0" x2="1" y2="0"><stop stop-color="#1D2338"/><stop offset=".48" stop-color="#315EA8"/><stop offset="1" stop-color="#5E8FD8"/></linearGradient>
    <linearGradient id="steel" x1="0" y1="0" x2="1" y2="1"><stop stop-color="#72767C"/><stop offset=".45" stop-color="#D9DEE3"/><stop offset=".62" stop-color="#8E949B"/><stop offset="1" stop-color="#50545A"/></linearGradient>
    <linearGradient id="paperGlow" x1="0" y1="0" x2="1" y2="1"><stop stop-color="#FFF7E8"/><stop offset="1" stop-color="#F5E4C4"/></linearGradient>
    <radialGradient id="eye"><stop stop-color="#C8E66A"/><stop offset=".5" stop-color="#9BBE3B"/><stop offset="1" stop-color="#496510"/></radialGradient>
    <pattern id="paperPattern" width="48" height="48" patternUnits="userSpaceOnUse"><path d="M0 24 Q12 10 24 24 T48 24" fill="none" stroke="#DBA153" stroke-opacity=".10" stroke-width="1.2"/><path d="M0 34 Q12 20 24 34 T48 34" fill="none" stroke="#315EA8" stroke-opacity=".07" stroke-width="1"/></pattern>
    <filter id="shadow" x="-20%" y="-20%" width="140%" height="140%"><feDropShadow dx="0" dy="7" stdDeviation="7" flood-color="#612C0C" flood-opacity=".18"/></filter>
  </defs>
    <path d="M45 73 C210 32 330 95 486 56" fill="none" stroke="url(#fire)" stroke-width="9" stroke-linecap="round" opacity=".8" stroke-dasharray="68 22"><animate attributeName="stroke-dashoffset" values="0;-180" dur="4s" repeatCount="indefinite"/></path>
    <path d="M715 56 C870 95 990 32 1155 73" fill="none" stroke="url(#water)" stroke-width="9" stroke-linecap="round" opacity=".8" stroke-dasharray="68 22"><animate attributeName="stroke-dashoffset" values="0;180" dur="4s" repeatCount="indefinite"/></path>
    <path d="M410 60 L410.0 60.0 L422.1 54.0 L434.1 60.0 L446.2 54.0 L458.3 60.0 L470.3 54.0 L482.4 60.0 L494.4 54.0 L506.5 60.0 L518.6 54.0 L530.6 60.0 L542.7 54.0 L554.8 60.0 L566.8 54.0 L578.9 60.0 L590.9 54.0 L603.0 60.0 L603 47 L410 47 Z" fill="url(#steel)" transform="rotate(18 510 60)" filter="url(#shadow)"/><path d="M596 60 L596.0 60.0 L608.1 66.0 L620.1 60.0 L632.2 66.0 L644.3 60.0 L656.3 66.0 L668.4 60.0 L680.4 66.0 L692.5 60.0 L704.6 66.0 L716.6 60.0 L728.7 66.0 L740.8 60.0 L752.8 66.0 L764.9 60.0 L776.9 66.0 L789.0 60.0 L789 73 L596 73 Z" fill="url(#steel)" transform="rotate(-18 692 60)" filter="url(#shadow)"/>
    <circle cx="600" cy="60" r="24" fill="#FFF7E8" stroke="#C0531B" stroke-width="4"/><ellipse cx="591" cy="60" rx="7" ry="4" fill="url(#eye)"/><ellipse cx="609" cy="60" rx="7" ry="4" fill="url(#eye)"/><circle cx="591" cy="60" r="2" fill="#181519"/><circle cx="609" cy="60" r="2" fill="#181519"/>
  </svg>